<svg xmlns="http://www.w3.org/2000/svg" width="148.62" height="32.183" viewBox="0 0 148.62 32.183"><g id="Grupo_3245" data-name="Grupo 3245" transform="translate(-631.513 -352.292)"><path id="Trazado_1880" data-name="Trazado 1880" d="M793.929,376.919v-1.934c0-.123.009-.247,0-.369-.019-.222.064-.324.3-.313s.492,0,.739,0c1.337,0,2.674,0,4.01,0,.4,0,.409.008.41.4q0,2.4,0,4.8v17.835c0,.088,0,.176,0,.264,0,.515,0,.518-.517.519q-2.189,0-4.379,0c-.476,0-.478,0-.479-.5,0-.731,0-1.462,0-2.187-.133-.018-.16.057-.194.111a6.218,6.218,0,0,1-4.074,2.773,12.734,12.734,0,0,1-8.547-.816,11.879,11.879,0,0,1-6.814-9.243,12.662,12.662,0,0,1,.958-7.473,11.615,11.615,0,0,1,7.441-6.617,12.624,12.624,0,0,1,6.874-.09,7.205,7.205,0,0,1,4.009,2.656c.053.069.111.133.167.2Zm-.546,9.242a5.457,5.457,0,0,0-.092-1.038,6.921,6.921,0,0,0-4.441-5.523,6.571,6.571,0,0,0-7.6,2.324,6.984,6.984,0,0,0,6.635,11.053A6.953,6.953,0,0,0,793.383,386.161Z" transform="translate(-95.437 -14.291)" fill="#ED5A00"></path><path id="Trazado_1881" data-name="Trazado 1881" d="M1024.042,377.01c0-.69-.005-1.35,0-2.009.008-.769-.115-.678.661-.68,1.407,0,2.814,0,4.221,0,.565,0,.55-.063.55.533q0,4.168,0,8.337,0,7.124,0,14.247c0,.123-.009.247,0,.369.021.246-.077.348-.331.342-.545-.012-1.09,0-1.636,0-1,0-2.005,0-3.008,0-.369,0-.376-.01-.378-.385-.005-.77,0-1.539,0-2.3-.123-.054-.152.028-.186.081a6.2,6.2,0,0,1-4.061,2.79,12.677,12.677,0,0,1-9.159-1.1,11.872,11.872,0,0,1-6.222-8.864,12.637,12.637,0,0,1,1.506-8.653,11.409,11.409,0,0,1,7.766-5.745,12.553,12.553,0,0,1,6.41.258,7.105,7.105,0,0,1,3.535,2.463C1023.792,376.8,1023.844,376.935,1024.042,377.01ZM1010,386.031a7.178,7.178,0,0,0,.209,1.827,6.783,6.783,0,0,0,7.79,5.124,6.938,6.938,0,0,0,5.485-6.5,7.064,7.064,0,0,0-2.9-5.971,6.1,6.1,0,0,0-5.225-1.148A6.735,6.735,0,0,0,1010,386.031Z" transform="translate(-249.347 -14.304)" fill="#ED5A00"></path><path id="Trazado_1882" data-name="Trazado 1882" d="M651.321,395.426a.88.88,0,0,0-.129.085,6.582,6.582,0,0,1-4.617,2.941,12.966,12.966,0,0,1-6.868-.445,11.821,11.821,0,0,1-7.942-9.4,12.483,12.483,0,0,1,1.364-8.728,11.433,11.433,0,0,1,7.879-5.917,12.517,12.517,0,0,1,6.411.266,7.1,7.1,0,0,1,3.56,2.517c.053.07.1.141.159.21.01.013.03.017.054.03.154-.066.076-.206.077-.307.008-.686.01-1.372,0-2.058,0-.22.062-.311.3-.31q2.4.011,4.8,0c.259,0,.351.089.323.336a2.881,2.881,0,0,0,0,.317q0,11.267,0,22.535c0,.717.093.64-.651.641q-2.111,0-4.222,0c-.492,0-.495,0-.5-.489C651.32,396.936,651.321,396.219,651.321,395.426Zm-.616-9.218c-.007-.121-.013-.3-.027-.471a6.914,6.914,0,0,0-4-5.914,6.535,6.535,0,0,0-7.9,1.859,6.968,6.968,0,0,0,6.7,11.245A6.97,6.97,0,0,0,650.706,386.207Z" transform="translate(0 -14.302)" fill="#ED5A00"></path><path id="Trazado_1883" data-name="Trazado 1883" d="M915.937,390.377a12.875,12.875,0,0,1-1.447,2.828,11.393,11.393,0,0,1-7.729,5.131,12.242,12.242,0,0,1-14.421-9.321,12.534,12.534,0,0,1,8.95-15.266,11.56,11.56,0,0,1,8.642,1,12.146,12.146,0,0,1,6.485,8.031,16.937,16.937,0,0,1,.376,4.611c-.009.289-.124.369-.382.345-.122-.011-.246,0-.369,0q-8.839,0-17.678,0a2.2,2.2,0,0,0-.661.042,5.839,5.839,0,0,0,2.045,4.028,6.156,6.156,0,0,0,2.992,1.345,7.865,7.865,0,0,0,4.2-.344,5.958,5.958,0,0,0,2.8-2.149.6.6,0,0,1,.538-.338c1.829.015,3.658.011,5.488.014A1.031,1.031,0,0,1,915.937,390.377Zm-5.127-7.058a6.447,6.447,0,0,0-3.28-4.138,7.459,7.459,0,0,0-2.845-.688,6.549,6.549,0,0,0-6.377,3.721,4.009,4.009,0,0,0-.387,1.106Z" transform="translate(-174.196 -14.072)" fill="#ED5A00"></path><path id="Trazado_1884" data-name="Trazado 1884" d="M727.652,380.771h-8.987c-.106,0-.211,0-.317,0-.394-.01-.4-.011-.4-.423q-.006-2.11,0-4.22c0-.513,0-.516.514-.516h13.347c.492,0,.985,0,1.477,0,.362,0,.37.01.371.387,0,1.759,0,3.517.007,5.276a1,1,0,0,1-.282.655q-2.6,3.29-5.2,6.582-2.075,2.629-4.151,5.258c-.063.08-.12.165-.24.331h.621q4.669,0,9.338,0c.6,0,.567-.087.568.561q0,2.084,0,4.168c0,.642.056.607-.59.607H721.486q-1.952,0-3.9,0c-.615,0-.529-.008-.53-.554,0-1.372.008-2.743-.007-4.115a1.2,1.2,0,0,1,.284-.813q4.957-6.3,9.9-12.613C727.354,381.182,727.471,381.015,727.652,380.771Z" transform="translate(-57.21 -15.596)" fill="#ED5A00"></path><path id="Trazado_1885" data-name="Trazado 1885" d="M870.383,368.056v15.087c0,.123-.009.247,0,.369.023.25-.081.343-.332.338-.668-.011-1.336,0-2,0-.9,0-1.793,0-2.69,0-.376,0-.377-.012-.388-.381,0-.106,0-.211,0-.317q0-15.087,0-30.173c0-.751-.107-.668.673-.67,1.407,0,2.813,0,4.22,0,.551,0,.519-.04.519.509q0,4.959,0,9.917Z" transform="translate(-156.15 -0.006)" fill="#ED5A00"></path><path id="Trazado_1886" data-name="Trazado 1886" d="M982.874,387.491q0,5.646,0,11.291c0,.721.093.631-.656.633-1.407,0-2.814,0-4.221,0-.592,0-.53.018-.53-.553q0-7.967,0-15.933v-6.648a3.069,3.069,0,0,0,0-.316c-.028-.261.055-.386.345-.369.368.022.738.005,1.108.005H982.4c.518,0,.476-.025.476.494Q982.875,381.793,982.874,387.491Z" transform="translate(-231.392 -15.587)" fill="#ED5A00"></path><path id="Trazado_1887" data-name="Trazado 1887" d="M980.176,357.6c-.773,0-1.545,0-2.317,0-.38,0-.39-.008-.391-.366,0-1.527,0-3.055-.007-4.582,0-.282.1-.357.363-.356q2.343.013,4.687,0c.257,0,.373.054.371.347-.013,1.545-.011,3.09,0,4.635,0,.255-.084.332-.334.328C981.756,357.588,980.966,357.6,980.176,357.6Z" transform="translate(-231.394)" fill="#ED5A00"></path></g></svg>